<svg width="44" height="44" viewBox="0 0 44 44" fill="none" xmlns="http://www.w3.org/2000/svg">
<rect width="44" height="44" rx="13" fill="#FFE1C4"/>
<path d="M30.25 13.7504V31.0005C30.25 31.1994 30.171 31.3901 30.0303 31.5308C29.8897 31.6714 29.6989 31.7505 29.5 31.7505C29.3011 31.7505 29.1103 31.6714 28.9697 31.5308C28.829 31.3901 28.75 31.1994 28.75 31.0005V26.5005H24.25C24.0511 26.5005 23.8603 26.4214 23.7197 26.2808C23.579 26.1401 23.5 25.9494 23.5 25.7505C23.5349 23.9539 23.7618 22.1662 24.1769 20.418C25.0938 16.622 26.8319 14.0776 29.2047 13.0614C29.3187 13.0125 29.4431 12.9927 29.5667 13.0038C29.6903 13.0148 29.8092 13.0563 29.9128 13.1246C30.0164 13.1929 30.1014 13.2858 30.1603 13.395C30.2191 13.5043 30.2499 13.6264 30.25 13.7504ZM21.2397 13.6276C21.225 13.5292 21.1908 13.4346 21.1392 13.3494C21.0876 13.2643 21.0195 13.1903 20.939 13.1317C20.8585 13.0732 20.7671 13.0312 20.6702 13.0083C20.5733 12.9855 20.4728 12.9821 20.3746 12.9985C20.2764 13.0149 20.1824 13.0506 20.0982 13.1037C20.0139 13.1568 19.9411 13.2261 19.8839 13.3076C19.8267 13.3891 19.7863 13.4812 19.7651 13.5785C19.7439 13.6757 19.7423 13.7763 19.7603 13.8742L20.4897 18.2505H18.25V13.7504C18.25 13.5515 18.171 13.3608 18.0303 13.2201C17.8897 13.0795 17.6989 13.0004 17.5 13.0004C17.3011 13.0004 17.1103 13.0795 16.9697 13.2201C16.829 13.3608 16.75 13.5515 16.75 13.7504V18.2505H14.5103L15.2397 13.8742C15.2577 13.7763 15.2561 13.6757 15.2349 13.5785C15.2137 13.4812 15.1733 13.3891 15.1161 13.3076C15.0589 13.2261 14.9861 13.1568 14.9018 13.1037C14.8176 13.0506 14.7236 13.0149 14.6254 12.9985C14.5272 12.9821 14.4267 12.9855 14.3298 13.0083C14.2329 13.0312 14.1415 13.0732 14.061 13.1317C13.9805 13.1903 13.9124 13.2643 13.8608 13.3494C13.8092 13.4346 13.775 13.5292 13.7603 13.6276L13.0103 18.1276C13.0035 18.1682 13.0001 18.2093 13 18.2505C13.0015 19.3134 13.3787 20.3416 14.0649 21.1534C14.7511 21.9652 15.7021 22.5083 16.75 22.6867V31.0005C16.75 31.1994 16.829 31.3901 16.9697 31.5308C17.1103 31.6714 17.3011 31.7505 17.5 31.7505C17.6989 31.7505 17.8897 31.6714 18.0303 31.5308C18.171 31.3901 18.25 31.1994 18.25 31.0005V22.6867C19.2979 22.5083 20.2489 21.9652 20.9351 21.1534C21.6213 20.3416 21.9985 19.3134 22 18.2505C21.9999 18.2093 21.9965 18.1682 21.9897 18.1276L21.2397 13.6276Z" fill="#FF7A18"/>
</svg>
