<svg width="19" height="20" viewBox="0 0 19 20" fill="none" xmlns="http://www.w3.org/2000/svg">
<mask id="mask0_218_923" style="mask-type:alpha" maskUnits="userSpaceOnUse" x="0" y="0" width="19" height="20">
<rect width="19" height="20" fill="#D9D9D9"/>
</mask>
<g mask="url(#mask0_218_923)">
<path d="M15.2792 13.75L12.7459 11.0833C12.8514 10.8472 12.9306 10.6078 12.9834 10.365C13.0361 10.1217 13.0625 9.86111 13.0625 9.58333C13.0625 8.54167 12.7163 7.65611 12.0239 6.92667C11.3309 6.19778 10.4896 5.83333 9.50003 5.83333C9.23614 5.83333 8.98861 5.86111 8.75744 5.91667C8.52681 5.97222 8.29933 6.05556 8.07503 6.16667L6.05628 4.04167C6.59725 3.80556 7.15142 3.62833 7.71878 3.51C8.28614 3.39222 8.87989 3.33333 9.50003 3.33333C11.3868 3.33333 13.0823 3.8575 14.5865 4.90583C16.0907 5.95472 17.2188 7.31945 17.9709 9C18.0104 9.06945 18.0368 9.15611 18.05 9.26C18.0632 9.36445 18.0698 9.47222 18.0698 9.58333C18.0698 9.69444 18.0601 9.80195 18.0405 9.90583C18.0205 10.0103 17.9973 10.0972 17.9709 10.1667C17.6674 10.875 17.2882 11.5347 16.8332 12.1458C16.3778 12.7569 15.8597 13.2917 15.2792 13.75ZM15.1209 18.25L12.35 15.375C11.8882 15.5278 11.4233 15.6425 10.9551 15.7192C10.4864 15.7953 10.0014 15.8333 9.50003 15.8333C7.61322 15.8333 5.91774 15.3092 4.41357 14.2608C2.9094 13.2119 1.78128 11.8472 1.0292 10.1667C0.989612 10.0972 0.963223 10.0103 0.950029 9.90583C0.936834 9.80195 0.930237 9.69444 0.930237 9.58333C0.930237 9.47222 0.936834 9.36806 0.950029 9.27083C0.963223 9.17361 0.989612 9.09028 1.0292 9.02083C1.30628 8.39583 1.63614 7.81944 2.01878 7.29167C2.40142 6.76389 2.82364 6.27778 3.28545 5.83333L1.64274 4.08333C1.4976 3.93056 1.42503 3.73944 1.42503 3.51C1.42503 3.28111 1.5042 3.08333 1.66253 2.91667C1.80767 2.76389 1.99239 2.6875 2.2167 2.6875C2.441 2.6875 2.62572 2.76389 2.77086 2.91667L16.2292 17.0833C16.3743 17.2361 16.4503 17.4272 16.4572 17.6567C16.4635 17.8856 16.3875 18.0833 16.2292 18.25C16.0841 18.4028 15.8993 18.4792 15.675 18.4792C15.4507 18.4792 15.266 18.4028 15.1209 18.25ZM9.50003 13.3333C9.64517 13.3333 9.78028 13.3264 9.90536 13.3125C10.031 13.2986 10.1663 13.2708 10.3115 13.2292L6.03649 8.72917C5.9969 8.88195 5.97051 9.02444 5.95732 9.15667C5.94413 9.28833 5.93753 9.43056 5.93753 9.58333C5.93753 10.625 6.28375 11.5106 6.97619 12.24C7.66917 12.9689 8.51044 13.3333 9.50003 13.3333ZM11.5979 9.875L9.22294 7.375C9.97503 7.25 10.5886 7.47222 11.0636 8.04167C11.5386 8.61111 11.7167 9.22222 11.5979 9.875Z" fill="#616161"/>
</g>
</svg>
